<svg width="16.000000" height="13.000000" viewBox="0 0 16 13" fill="none" xmlns="http://www.w3.org/2000/svg" xmlns:xlink="http://www.w3.org/1999/xlink">
	<desc>
			Created with Pixso.
	</desc>
	<defs/>
	<path id="Vector (Stroke)" d="M15.79 -0.49C15.94 -0.33 15.98 -0.11 15.91 0.09L11.31 12.17C11.24 12.34 11.09 12.47 10.91 12.51C10.73 12.55 10.54 12.49 10.41 12.36L5.32 7.28L0.27 5.59C0.05 5.52 -0.1 5.31 -0.11 5.07C-0.11 4.84 0.04 4.63 0.27 4.55L15.21 -0.62C15.42 -0.69 15.64 -0.64 15.79 -0.49ZM6.47 6.87L10.58 10.98L14.24 1.38L6.47 6.87ZM11.91 1.68L2.15 5.06L5.53 6.19L11.91 1.68Z" fill="#ADA08C" fill-opacity="1.000000" fill-rule="evenodd"/>
</svg>
