<svg width="269" height="35" viewBox="0 0 269 35" fill="none" xmlns="http://www.w3.org/2000/svg"><path id="Vector" d="M268.14 15.69c-.45-1.41-1.35-2.38-2.64-2.38-.69 0-1.27.37-1.27 1.03 0 1.75 4.77 1.2 4.77 4.35 0 1.55-1.18 2.56-3.03 2.56-1.35 0-1.96-.41-2.25-.41-.31 0-.49.14-.66.41h-.22v-2.89h.28c.46 1.66 1.56 2.48 2.79 2.48 1.09 0 1.54-.59 1.54-1.19 0-.55-.43-1.29-2.26-1.86-1.37-.43-2.37-1.39-2.37-2.57 0-1.48 1.25-2.33 2.72-2.33 1.13 0 1.72.42 2.01.42.2 0 .45-.18.57-.42h.27v2.8h-.27.02zm-13.48-1.54c0-.57-.18-.63-1-.63v-.41h6.99l.79 2.17h-.34c-1.13-1.27-1.97-1.76-3.75-1.76-.58 0-.72.06-.72.51v2.68h.53c1.46 0 1.99-.43 2.3-1.6h.33v3.52h-.33c-.23-1.14-.88-1.51-2.3-1.51h-.53v3.02c0 .33.14.47 1.19.47 1.6 0 2.5-.41 3.38-1.9h.37l-.62 2.31h-7.31v-.41c.82 0 1-.06 1-.63v-5.83h.02zm-2.45 4.15v2.95h-.27c-.14-.35-.33-.54-.6-.54-.36 0-1.39.54-2.84.54-2.56 0-4.35-1.84-4.35-4.03 0-2.45 1.75-4.33 4.57-4.33 1.17 0 2.15.42 2.62.42.21 0 .46-.12.6-.34h.27v2.49h-.33c-.62-1.19-1.52-2.15-2.97-2.15-1.54 0-2.61 1.15-2.61 3.75 0 2.84 1.34 3.76 2.54 3.76 1.3 0 2.36-1.09 3.04-2.52h.33zm-10.37-3.7c0-.94-.55-1.08-1.27-1.08v-.41h2.87v.41c-.52 0-1.05.12-1.05 1.1v6.63h-.47l-6.17-7v5.22c0 .94.29 1.14 1.19 1.14v.41h-2.87v-.41c.78 0 1.11-.16 1.11-1.74v-4.43c0-.8-.14-.92-1.07-.92v-.41h3.08l4.61 5.3V14.6h.04zm-15.65-.45c0-.57-.17-.63-.99-.63v-.41h6.99l.78 2.17h-.33c-1.13-1.27-1.97-1.76-3.75-1.76-.59 0-.72.06-.72.51v2.68h.52c1.47 0 2-.43 2.31-1.6h.33v3.52H231c-.23-1.14-.88-1.51-2.31-1.51h-.52v3.02c0 .33.13.47 1.19.47 1.6 0 2.5-.41 3.38-1.9h.37l-.63 2.31h-7.3v-.41c.82 0 .99-.06.99-.63v-5.83h.02zm-8.04 6.01c0 .25.05.47 1.11.47 2.25 0 3.09-1.88 3.09-3.39 0-2.72-1.51-3.72-3.19-3.72-.88 0-1 .22-1 .69v5.95h-.01zm-1.98-6.01c0-.57-.17-.63-.99-.63v-.41h4.41c2.72 0 4.9 1.49 4.9 3.97 0 2.04-1.85 3.98-4.59 3.98h-4.72v-.41c.82 0 .99-.06.99-.63v-5.87zm-5.37 0c0-.57-.18-.63-1-.63v-.41h3.97v.41c-.82 0-1 .06-1 .63v5.83c0 .57.18.63 1 .63v.41h-3.97v-.41c.82 0 1-.06 1-.63v-5.83zm-3.34 1.54c-.45-1.41-1.35-2.38-2.64-2.38-.68 0-1.27.37-1.27 1.03 0 1.75 4.77 1.2 4.77 4.35 0 1.55-1.17 2.56-3.03 2.56-1.35 0-1.95-.41-2.25-.41-.31 0-.48.14-.66.41h-.21v-2.89h.27c.47 1.66 1.56 2.48 2.79 2.48 1.1 0 1.55-.59 1.55-1.19 0-.55-.43-1.29-2.27-1.86-1.37-.43-2.36-1.39-2.36-2.57 0-1.48 1.25-2.33 2.71-2.33 1.13 0 1.72.42 2.01.42.2 0 .45-.18.57-.42h.27v2.8h-.27.02zm-13.5-1.54c0-.57-.18-.63-1-.63v-.41h7l.78 2.17h-.33c-1.14-1.27-1.98-1.76-3.75-1.76-.59 0-.73.06-.73.51v2.68h.53c1.47 0 1.99-.43 2.31-1.6h.33v3.52h-.33c-.24-1.14-.88-1.51-2.31-1.51h-.53v3.02c0 .33.14.47 1.2.47 1.6 0 2.5-.41 3.38-1.9h.37l-.63 2.31h-7.31v-.41c.83 0 1-.06 1-.63v-5.83h.02zm-7.72 2.68h.69c.94 0 1.78-.43 1.78-1.64 0-.71-.39-1.67-2.04-1.67h-.45v3.31h.02zm-1.97-2.68c0-.57-.17-.63-1-.63v-.41h3.97c2.56 0 3.46 1.19 3.46 2.21s-.76 1.65-2.05 1.72v.04c.41 0 .7.2 1.03.71l1.31 2.03c.47.77.7.81 1.17.81v.41h-2.73l-1.86-3.31c-.21-.39-.51-.51-1.35-.51V20c0 .57.18.63 1 .63v.41h-3.96v-.41c.82 0 .99-.06.99-.63v-5.83l.02-.02zm-76.87 3.48h2.66l1.11-1.6h-2.66l-1.11 1.6zm-65.15 2.35c0 .57-.18.63-1 .63v.41h3.99v-.41c-.82 0-1-.06-1-.63v-6.11c0-.29.14-.41.41-.41.69 0 1.84.63 2.5 1.86l.32-.12-.47-2.32h-.34c-.21.11-.5.21-.78.21h-5.25c-.14 0-.28 0-.41-.06-.14-.04-.26-.1-.37-.15h-.34l-.46 2.32.31.12c.66-1.23 1.82-1.86 2.5-1.86.27 0 .41.12.41.41v6.11h-.02zm13.01 0c0 .57-.18.63-1 .63v.41h3.99v-.41c-.82 0-1-.06-1-.63v-5.85c0-.57.18-.63 1-.63v-.41h-3.99v.41c.82 0 1 .06 1 .63v2.43h-4.04v-2.43c0-.57.17-.63.99-.63v-.41h-3.98v.41c.82 0 .99.06.99.63v5.85c0 .57-.17.63-.99.63v.41h3.98v-.41c-.82 0-.99-.06-.99-.63v-2.86h4.04v2.86zm5.24 0c0 .57-.18.63-1 .63v.41h7.33l.62-2.31h-.37c-.9 1.49-1.8 1.9-3.4 1.9-1.06 0-1.21-.16-1.21-.47v-3.02H63c1.42 0 2.09.39 2.3 1.51h.33v-3.54h-.33c-.33 1.17-.84 1.6-2.3 1.6h-.53v-2.68c0-.45.14-.51.72-.51 1.8 0 2.64.49 3.77 1.76h.33l-.78-2.17H59.5v.41c.82 0 1 .06 1 .63v5.85zm16.29-3.15h-.71V13.5h.45c1.65 0 2.04.96 2.04 1.67 0 1.21-.84 1.66-1.8 1.66h.02zm4.06 2.97-1.31-2.03c-.33-.51-.62-.71-1.03-.71v-.03c1.29-.08 2.05-.75 2.05-1.73s-.9-2.21-3.46-2.21h-3.98v.41c.82 0 .99.06.99.63v5.85c0 .57-.17.63-.99.63v.41h3.98v-.41c-.82 0-1-.06-1-.63V17.2c.84 0 1.14.12 1.35.51l1.86 3.33h2.73v-.41c-.47 0-.7-.04-1.17-.81l-.02-.02zm3.22.18c0 .57-.17.63-.99.63v.41h3.98v-.41c-.82 0-.99-.06-.99-.63v-5.85c0-.57.17-.63.99-.63v-.41h-3.98v.41c.82 0 .99.06.99.63v5.85zm6.98 0c0 .57-.2.63-1 .63v.41h3.99v-.41c-.82 0-1-.06-1-.63v-6.11c0-.29.14-.41.41-.41.69 0 1.84.63 2.5 1.86l.31-.12-.46-2.32h-.34c-.21.11-.5.21-.78.21h-5.25c-.14 0-.28 0-.41-.06-.14-.04-.26-.1-.37-.15h-.34l-.48 2.32.31.12c.66-1.23 1.81-1.86 2.5-1.86.27 0 .41.12.41.41v6.11zm5.96 1.06h6.91l.84-2.39h-.33c-1.15 1.55-1.87 2.02-3.01 2.02h-1.93l5.02-7.36v-.22h-6.8l-.74 2.23h.27c.92-1.21 1.88-1.8 2.93-1.8h1.82l-4.96 7.24v.28h-.02zm24.24-2.74c-.7 1.43-1.74 2.54-3.05 2.54-1.21 0-2.54-.92-2.54-3.78 0-2.6 1.08-3.77 2.62-3.77 1.45 0 2.35.98 2.97 2.17h.33v-2.49h-.27a.77.77 0 0 1-.61.34c-.47 0-1.44-.42-2.61-.42-2.84 0-4.59 1.88-4.59 4.33 0 2.21 1.79 4.05 4.37 4.05 1.45 0 2.48-.55 2.83-.55.28 0 .47.18.61.55h.27v-2.95h-.33v-.02zm3.85.23 1.58-3.34 1.64 3.34h-3.22zm5.98 1.22-3.34-6.46c-.14-.26-.2-.34-.26-.34-.1 0-.37.63-1.35 1.3.14.05.26.21.26.35 0 .1 0 .17-.12.39l-2.01 4.19c-.51 1.07-.82 1.43-1.58 1.43v.41h2.87v-.41c-.76 0-1.08-.22-1.08-.53 0-.18.1-.49.47-1.1h3.62c.49.77.58 1.16.58 1.29 0 .26-.25.34-1.07.34v.41h4.3v-.41c-.71 0-.9-.16-1.27-.86h-.02zm5.88-2.92h-.71V13.5h.45c1.64 0 2.03.96 2.03 1.67 0 1.21-.84 1.66-1.79 1.66h.02zm4.06 2.97-1.31-2.03c-.33-.51-.62-.71-1.03-.71v-.03c1.29-.08 2.05-.75 2.05-1.73s-.9-2.21-3.46-2.21h-3.99v.41c.82 0 1 .06 1 .63v5.85c0 .57-.19.63-1 .63v.41h3.99v-.41c-.82 0-1-.06-1-.63V17.2c.84 0 1.14.12 1.35.51l1.86 3.33h2.73v-.41c-.47 0-.7-.04-1.17-.81l-.02-.02zm2.87.18c0 .57-.19.63-1 .63v.41h7.51l.6-2.31h-.37c-1.09 1.6-1.8 1.9-3.71 1.9-.88 0-1.05-.16-1.05-.55v-5.93c0-.57.19-.63.99-.63v-.41h-3.98v.41c.82 0 .99.06.99.63v5.85h.02zm9.36 0c0 .57-.18.63-1 .63v.41h3.99v-.41c-.82 0-1-.06-1-.63v-6.11c0-.29.14-.41.41-.41.69 0 1.84.63 2.5 1.86l.32-.12-.47-2.32h-.34c-.21.11-.5.21-.78.21h-5.25c-.14 0-.28 0-.41-.06-.14-.04-.26-.1-.37-.15h-.34l-.48 2.32.31.12c.66-1.23 1.82-1.86 2.5-1.86.27 0 .41.12.41.41v6.11zm10.25.9c-1.48 0-2.16-1.33-2.16-3.82 0-2.48.68-3.81 2.16-3.81 1.49 0 2.17 1.33 2.17 3.81 0 2.49-.68 3.82-2.17 3.82zm0-8c-2.12 0-4.31 1.39-4.31 4.18 0 2.8 2.19 4.19 4.31 4.19 2.13 0 4.32-1.39 4.32-4.19 0-2.79-2.19-4.18-4.32-4.18zm12.76 5.53-4.63-5.32h-3.1v.41c.93 0 1.07.12 1.07.92v4.45c0 1.58-.33 1.74-1.11 1.74v.41h2.87v-.41c-.92 0-1.21-.2-1.21-1.14v-5.24l6.19 7.02h.47V14.6c0-1 .53-1.1 1.05-1.1v-.41h-2.87v.41c.72 0 1.27.14 1.27 1.08v3.83zM11.42 32.88c-4.31 0-7.19-.06-7.19-.06l-.6-2.33s3.93-.55 7.79-.55c3.87 0 7.8.55 7.8.55l-.61 2.33s-2.87.06-7.19.06zm11-8.75-.15-.06c-.22.33-1 1.06-2.15 1.06l-.06.12c.49.49.39 1.6-.22 1.6-.39 0-.54-.33-.6-.61l-.12-.05c-.16.11-.61.45-.72.54 0 .34.06.79.11 1.06h.12c.12-.21.33-.27.45-.27.27 0 .49.21.49.55 0 .54-.39 1.05-1.15 1.05-.82 0-1.55-.39-1.55-1.27 0-.45.22-.94.82-1.21v-.12c-.45-.33-.82-.88-.93-1.16h-.12c-.16.22-.72.73-1.21.83v.11c.45.45.49.88.49 1.16 0 .72-.61 1.15-1.88 1.15-.94 0-1.87-.27-1.87-1.21 0-.49.33-.78.72-.78.27 0 .6.11.82.45h.12c.21-.28.33-.45.72-.79v-.11c-.16-.12-.45-.45-.72-.83h-.12c-.39.45-.67.49-1 .49-.21 0-.54-.11-.54-.49 0-.48.6-.72 1.11-.88v-.11c-.82-.34-1.6-1.22-1.78-1.79h-.12c-.15.55-.93 1.45-1.77 1.79v.11c.48.16 1.11.4 1.11.88 0 .4-.33.49-.55.49-.33 0-.6-.05-.99-.49h-.12c-.27.4-.55.73-.72.83v.11c.39.34.48.49.72.79h.12c.21-.34.54-.45.82-.45.39 0 .72.27.72.78 0 .94-.94 1.21-1.88 1.21-1.27 0-1.87-.45-1.87-1.15 0-.28.06-.73.49-1.16v-.11c-.49-.12-1.06-.61-1.21-.83h-.12c-.12.28-.49.83-.94 1.16v.12c.61.27.82.78.82 1.21 0 .88-.72 1.27-1.54 1.27-.78 0-1.15-.49-1.15-1.05 0-.34.21-.55.48-.55.12 0 .34.06.45.27h.12c.06-.27.12-.72.12-1.06-.12-.11-.55-.45-.72-.54l-.12.05c-.06.28-.22.61-.61.61-.6 0-.72-1.11-.21-1.6l-.06-.12c-1.15 0-1.93-.73-2.15-1.06l-.16.06 2.33 5.33s-.49.21-.39.6c.21.78.88 1.78.88 3 0 .49-.06.54-.06.78 0 .23.15.33.39.33h15.71c.21 0 .39-.11.39-.33 0-.22-.06-.27-.06-.78 0-1.22.66-2.22.88-3 .11-.39-.39-.6-.39-.6l2.32-5.33h-.04zM4.45 5.69c.06.12.21.22.33.22.22-.22.45-.49.45-.79-.27.06-.78.16-.78.55v.02zm10.67-2.27.15.12s1-.45 1-1.16c0 0 0-.39-.22-.6-.11 0-.11.21-.11.33 0 .21-.16.39-.45.39-.22 0-.61-.21-.61-.61 0-.39.16-.54.16-.66 0 0 0-.06-.06-.06-.88.33-.94.72-.94 1 0 .39.16.78 1.06 1.27l.02-.02zM3 22.53c2.6 0 2.54-3 2.54-4 0-4.48 1.33-5.6 4.42-7.02 2.32-1.12 4.41-1.55 4.41-3.76 0-.79-.21-1.61-1.11-1.61 0 0 .33.33.33.88 0 .22-.06.45-.15.73 0-.22-.06-.49-.22-.73-.27.45-.21 1.12-.39 1.39 0 0-.12.28-.88.67 0 0-.12.12.27.12 0 0 .94 0 1.27-.4-.27.79-.6 1.06-1.11 1.06-.27 0-.72-.06-1.11-.06-.67 0-2.21.33-2.82 1.39-.45.73-1.72 1.39-2.15 1.39-.39 0-.93-.88-.93-1.27 0-.45.78-.16 1.38-.78 1-1 1.39-1.22 2.45-1.22 0 0 .6 0 .05-.55l-1.71-1.6c-.22-.22-.4-.33-.61-.33-.12 0-.33.06-.82.49-1 .11-1.39.27-1.66.45-.16.11-.27.21-.39.21-.16 0-.39-.88-.39-1.06 0-.45.49-.72.49-.99 0-.16-.16-.22-.16-.22l-.72.33s-.39-.45.06-.66c0 0 1.11-.61 3.2-1.61.12.61.27.73.78.67l-.21.06-.12.15c.15.06.49 0 .82-.11.27-.12.6-.12.66-.16.06-.06.22-.22.22-.27-.12 0-.45.05-.67.11.34-.21.49-.39.49-.49 0-.05-.06-.11-.06-.11-.15 0-.27.11-.45.06a.367.367 0 0 1-.21-.34c0-.12.12-.21.49-.21h.27c0-.22-.55-.34-.78-.34-.27 0-.66.12-1 .28 0 0 .06-.45.55-.67.27-.11 1.72-.27 3.09-.27 1.99 0 3.47 1.72 3.75 1.72.12 0 .21-.12.06-.21-.73-.49-1.16-.88-1.16-1.39 0-.16 0-1.22 2.27-1.61 1 .82 1.33 1.45 1.33 2 0 .94-1.06 1.05-1.15 1.45 2.59.15 4.53 3.6 4.53 5.32 0 3.09-2.93 4.39-4.75 4.76 2.66-2 3.65-4 3.65-5.37 0-2.27-2.05-3.6-2.54-3.87 1.16 1.27 1.45 2.6 1.45 3.6 0 1.94-1.21 2.88-1.21 2.88.21-.45.27-.82.27-1.16 0-.27-.06-.49-.06-.49-1.05 2.49-3.47 4.21-3.65 6.33-.16-.49-.21-1-.21-1.45 0-1.78 1.11-2.88 1.11-2.88-2.15 1.49-2.66 3.21-2.66 4.54 0 1.33.55 2.33.55 2.33-.12-.49-.06-1.33.06-2 .21 1.88 1.15 4.21 3.75 5.7-4.53 0-6.41-5.42-4.53-8.87-3.15.82-3.54 4.09-3.6 5.99-.21-1-.27-1.78-.27-2.39 0-3.38 2.81-4.26 4.92-5.2 3.09-1.39 4.38-2.49 4.38-4.49 0-2.11-2.48-3.42-4.32-3.05l.66.67c.12.11.28.21.28.21 1.93 1 2.21 2.12 2.21 2.76 0 1.78-2 2.72-3.42 3.33-4.65 2-5.47 2.88-5.47 5.75 0 2.12.6 5.43-1.6 5.7.15.28.93.39.93.39-.66.55-1.38.73-2.2.73-.79 0-2.33-.22-2.78-1.88.45.27 1.06.6 1.99.6l.02-.05zm3.54-12.2c-.22.22-.45.22-.55.22-.11-.28 0-.67 0-.67.22 0 .55.16.55.45zm-.61-.72c-.21.33-.39.78-1.05.78-.67 0-1.21-.49-1.66-.49-.22 0-.33.06-.45.06-.12 0-.16-.06-.16-.12 0-.16.22-.33.55-.33s.61.15 1.11.27c.73.22 1.16-.39 1.45-.6.33-.28.6-.34.88-.34.54 0 .94.28.94.28-.28 0-.88.27-1.33.54-.16-.05-.22-.11-.28-.05zM4.78 7.94c.12-.06.49-.12.49-.12.12.22.12.61.06.94-.49 0-.67-.48-.55-.82zM17.17 2.4c2.05.45 1.77 1.78 2.15 2.72-.88-1.11-2.06-1.82-2.06-1.82.12-.49-.11-.88-.11-.88l.02-.02zm2.59 10.48c0 2.32-2.98 2.6-2.98 4.87 0 .88.27 1.49.11 2.05 0 0 .61-.66.67-1.15 0 1.72.88 3.72 3.14 3.72.33 0 .82-.06 1.27-.33 0 0-.12 1.6-1.93 1.6-2.33 0-4.42-1.94-4.42-5.54 0-.66.12-1.45.49-1.99 0 0-1.11.6-1.21 2.54 0 0-.45-.67-.45-1.49 0-2.76 3.38-1.78 5.31-4.27v-.01zm-.21 11.74c2.05 0 3.09-1.06 3.09-2.66 0-.55-.16-.94-.16-.94-.55.45-1.21.55-1.6.55-.82 0-1.94-.49-1.94-1.82 0-1.73 1.82-2.61 1.82-4.55 0-.54-.21-.78-.21-.78.82-1.11 1.11-2.15 1.11-2.99 0-1.55-.82-2.55-.82-2.55l.88.45a7.05 7.05 0 0 0-1.21-2.48s.45.21.66.11c-.45-.21-1.11-1.05-1.11-2.54s-.33-2.33-3.21-2.82C16.52.93 15.74.21 15.37 0c-.66.33-1.66.72-1.99.99 0 0-.82.06-1.16.06-.48 0-.87-.15-1.11-.15-.66 0-1.11.66-1.11.66s-1.49.06-2.54.28c-.55.11-.88.54-1.27 1.48L3.47 4.81c-.49.27-.82.45-.82.88 0 .22.16.61.49 1.12.27 1.66.55 1.93.94 1.93.12 0 .33-.05.33-.05.12.11.39.54.45.72-.45.22-1-.27-1.66-.27-.39 0-1 .21-1 .88 0 .21.12.27.22.27.15 0 .33-.06.72-.06.49 0 .88.45 1.66.45.27 0 .45-.06.55 0-.39.28-.61.45-.49.83.16.72.82 1.54 1.15 1.54.28 0 .78-.16.78-.16l-.33.28c-2.21 1.88-1.72 3.99-1.72 6.09 0 1.6-.45 2.6-1.72 2.6-.82 0-1.99-.49-2.87-1.61-.12.34-.15.83-.15 1.28 0 1.94 1.77 3.21 3.53 3.21 1.54 0 2.66-.45 3.75-1.33 3.15-.06 4.14-2.16 4.14-2.16 1.49 2.16 4.26 2 4.71 2 .94 1 2.38 1.39 3.42 1.39v-.02zm-9.18-4.72c0 1.73-1.45 2.49-2.93 2.49 1.93-2.12.45-5.15 2.32-7.15-.15 1.79.61 3.43.61 4.66zM8.32 5.73h.06c.27 1.06 1.48 1.16 1.77 2.39l-.06.06c-.6-.88-1.44-1-1.77-1.45-.16-.22-.16-.49 0-1zm5.64 25.7s-.33.45-.39.45c-.06 0-.39-.39-.39-.45 0-.12.33-.45.39-.45.06 0 .39.33.39.45zm4.26.12s-.33.45-.39.45c-.06 0-.39-.39-.39-.45 0-.12.33-.45.39-.45.06 0 .39.33.39.45zm-1.44.78c.11 0 .21-.06.21-.21V30.9c0-.15-.12-.21-.21-.21-.67-.06-1.72-.12-2.15-.12-.18 0-.28.12-.28.27v1.22c0 .16.12.27.28.27h2.15zm-4.32.06c.15 0 .27-.12.27-.27v-1.33a.27.27 0 0 0-.27-.28h-2.11c-.16 0-.27.12-.27.28v1.33c0 .15.11.27.27.27h2.11zm-3.6-.94c0-.12.34-.45.39-.45.06 0 .4.33.4.45 0 .06-.34.45-.4.45-.05 0-.39-.39-.39-.45zm-4.25.12c0-.12.33-.45.39-.45.05 0 .39.33.39.45 0 .06-.34.45-.39.45-.06 0-.39-.39-.39-.45zm1.44.78H8.2c.16 0 .27-.12.27-.27v-1.22c0-.15-.11-.27-.27-.27-.45 0-1.48.06-2.15.12-.12 0-.21.06-.21.21v1.22c0 .15.11.21.21.21zm4.81-.88c0-.16.45-.61.54-.61.06 0 .49.45.49.61 0 .06-.45.55-.49.55-.11 0-.54-.49-.54-.55zm4.31 0c0-.16.45-.61.55-.61.06 0 .49.45.49.61 0 .06-.45.55-.49.55-.12 0-.55-.49-.55-.55zm-8.57 0c0-.16.45-.61.54-.61.06 0 .49.45.49.61 0 .06-.45.55-.49.55-.11 0-.54-.49-.54-.55z" fill="#FFFFFF" fill-opacity="1.000000" fill-rule="nonzero"/><path id="Vector" d="M43.36 32.02c0-.92-.58-1.68-1.64-1.68h-.94v3.34h.94c1.04 0 1.64-.74 1.64-1.66zm-3.1 2.15v-4.28h1.46c1.33 0 2.19.94 2.19 2.15s-.86 2.15-2.19 2.15h-1.46v-.02z" fill="#FFFFFF" fill-opacity="1.000000" fill-rule="nonzero"/><path id="Vector" d="M45.59 32.51v-2.62h.53v2.62c0 .78.43 1.27 1.21 1.27.78 0 1.21-.49 1.21-1.27v-2.62h.53v2.62c0 1.08-.59 1.74-1.74 1.74-1.15 0-1.74-.68-1.74-1.74z" fill="#FFFFFF" fill-opacity="1.000000" fill-rule="nonzero"/><path id="Vector" d="M53.56 32.96c0-.39-.27-.74-.8-.74h-1.31v1.48h1.31c.51 0 .8-.27.8-.74zm-.08-1.9c0-.39-.25-.7-.74-.7h-1.29v1.39h1.29c.49 0 .74-.3.74-.69zm-2.56 3.11v-4.28h1.92c.74 0 1.19.45 1.19 1.09 0 .55-.35.9-.74.98.45.08.84.55.84 1.06 0 .68-.45 1.15-1.23 1.15h-1.98z" fill="#FFFFFF" fill-opacity="1.000000" fill-rule="nonzero"/><path id="Vector" d="m57.39 30.43-.92 2.31h1.82l-.9-2.31zm1.44 3.74-.37-.96h-2.13l-.37.96h-.6l1.72-4.28h.66l1.72 4.28h-.63z" fill="#FFFFFF" fill-opacity="1.000000" fill-rule="nonzero"/><path id="Vector" d="M60.85 34.17v-4.3h.53v4.3h-.53z" fill="#FFFFFF" fill-opacity="1.000000" fill-rule="nonzero"/><path id="Vector" d="m63.31 34.99-.24-.19c.22-.14.4-.39.41-.61h-.09c-.18 0-.32-.13-.32-.33 0-.2.16-.35.34-.35.21 0 .41.17.41.49 0 .39-.24.76-.53.98l.02.01z" fill="#FFFFFF" fill-opacity="1.000000" fill-rule="nonzero"/><path id="Vector" d="M67.82 32.02c0-1.31.98-2.21 2.21-2.21.76 0 1.29.37 1.62.84l-.45.25c-.23-.35-.68-.62-1.17-.62-.94 0-1.64.72-1.64 1.74s.7 1.74 1.64 1.74c.49 0 .94-.25 1.17-.62l.45.25c-.35.49-.88.84-1.64.84-1.23 0-2.21-.9-2.21-2.21h.02z" fill="#FFFFFF" fill-opacity="1.000000" fill-rule="nonzero"/><path id="Vector" d="M75.68 31.18c0-.49-.36-.82-.86-.82h-1.14V32h1.14c.5 0 .86-.33.86-.82zm-.04 2.99-1.1-1.7h-.86v1.7h-.52v-4.28h1.71c.79 0 1.35.5 1.35 1.29 0 .78-.53 1.19-1.11 1.25l1.15 1.74h-.62z" fill="#FFFFFF" fill-opacity="1.000000" fill-rule="nonzero"/><path id="Vector" d="M77.9 34.17v-4.3h2.81v.48h-2.28v1.37h2.23v.49h-2.23v1.47h2.28v.49H77.9z" fill="#FFFFFF" fill-opacity="1.000000" fill-rule="nonzero"/><path id="Vector" d="M82.4 34.17v-4.3h2.79v.48h-2.27v1.37h2.23v.49h-2.23v1.47h2.27v.49H82.4z" fill="#FFFFFF" fill-opacity="1.000000" fill-rule="nonzero"/><path id="Vector" d="m89.47 34.17-1.64-1.94-.43.49v1.45h-.53v-4.3h.53v2.23l1.89-2.23h.68l-1.79 2.05 1.95 2.25h-.66z" fill="#FFFFFF" fill-opacity="1.000000" fill-rule="nonzero"/><path id="Vector" d="m91.3 33.57.32-.42c.27.32.74.61 1.34.61.77 0 1.02-.41 1.02-.74 0-1.12-2.54-.49-2.54-2.04 0-.7.62-1.19 1.46-1.19.67 0 1.18.21 1.53.6l-.31.4c-.32-.36-.77-.51-1.23-.51-.51 0-.88.27-.88.68 0 .96 2.54.41 2.54 2.02 0 .62-.43 1.25-1.59 1.25-.74 0-1.29-.27-1.64-.68l-.02.02z" fill="#FFFFFF" fill-opacity="1.000000" fill-rule="nonzero"/><path id="Vector" d="M96.15 34.17v-4.3h.54v4.3h-.54z" fill="#FFFFFF" fill-opacity="1.000000" fill-rule="nonzero"/><path id="Vector" d="M101.64 32.02c0-.92-.59-1.68-1.64-1.68h-.94v3.34h.94c1.03 0 1.64-.74 1.64-1.66zm-3.11 2.15v-4.28H100c1.32 0 2.18.94 2.18 2.15s-.86 2.15-2.18 2.15h-1.47v-.02z" fill="#FFFFFF" fill-opacity="1.000000" fill-rule="nonzero"/><path id="Vector" d="M103.85 34.17v-4.3h2.81v.48h-2.29v1.37h2.23v.49h-2.23v1.47h2.29v.49h-2.81z" fill="#FFFFFF" fill-opacity="1.000000" fill-rule="nonzero"/></svg>